<?xml version="1.0" encoding="utf-8"?>
<!-- Generator: Adobe Illustrator 15.0.2, SVG Export Plug-In . SVG Version: 6.00 Build 0)  -->
<!DOCTYPE svg PUBLIC "-//W3C//DTD SVG 1.1//EN" "http://www.w3.org/Graphics/SVG/1.1/DTD/svg11.dtd">
<svg version="1.1" id="Layer_1" xmlns="http://www.w3.org/2000/svg" xmlns:xlink="http://www.w3.org/1999/xlink" x="0px" y="0px"
	 width="722px" height="225.75px" viewBox="0 0 722 225.75" enable-background="new 0 0 722 225.75" xml:space="preserve">
<g>
	<defs>
		<rect id="SVGID_1_" width="722" height="225.75"/>
	</defs>
	<clipPath id="SVGID_2_">
		<use xlink:href="#SVGID_1_"  overflow="visible"/>
	</clipPath>
	<path clip-path="url(#SVGID_2_)" fill-rule="evenodd" clip-rule="evenodd" fill="#000000" d="M141.348,224.487h-3.758
		c-15.753,0-28.552-12.802-28.552-28.558c0-15.732,12.799-28.541,28.552-28.541h3.758c15.749,0,28.551,12.809,28.551,28.541
		C169.899,211.686,157.097,224.487,141.348,224.487 M137.59,177.949c-9.929,0-18.006,8.064-18.006,17.98c0,9.923,8.077,18,18.006,18
		h3.758c9.922,0,17.988-8.077,17.988-18c0-9.916-8.066-17.98-17.988-17.98H137.59z"/>
	<path clip-path="url(#SVGID_2_)" fill-rule="evenodd" clip-rule="evenodd" fill="#000000" d="M233.062,224.487h-3.746
		c-15.758,0-28.565-12.802-28.565-28.558c0-15.732,12.807-28.541,28.565-28.541h3.746c15.749,0,28.565,12.809,28.565,28.541
		C261.627,211.686,248.811,224.487,233.062,224.487 M229.316,177.949c-9.944,0-18.014,8.064-18.014,17.98c0,9.923,8.07,18,18.014,18
		h3.746c9.932,0,18.002-8.077,18.002-18c0-9.916-8.07-17.98-18.002-17.98H229.316z"/>
	<path clip-path="url(#SVGID_2_)" fill-rule="evenodd" clip-rule="evenodd" fill="#000000" d="M395.726,223.873h-10.566v-55.938
		h30.181c12.028,0,21.806,9.779,21.806,21.81c0,12.036-9.777,21.812-21.806,21.812h-19.614V223.873z M395.726,201.012h19.614
		c6.202,0,11.249-5.059,11.249-11.268c0-6.207-5.047-11.248-11.249-11.248h-19.614V201.012z"/>
	<polygon clip-path="url(#SVGID_2_)" fill-rule="evenodd" clip-rule="evenodd" fill="#000000" points="345.714,224.036 
		302.72,224.036 302.72,167.873 313.276,167.873 313.276,213.469 345.714,213.469 	"/>
	<polygon clip-path="url(#SVGID_2_)" fill-rule="evenodd" clip-rule="evenodd" fill="#000000" points="489.144,213.257 
		489.144,203.317 520.65,203.317 520.65,192.763 489.144,192.763 489.144,178.421 524.414,178.421 524.414,167.873 478.588,167.873 
		478.588,223.828 524.88,223.828 524.88,213.257 	"/>
	<path clip-path="url(#SVGID_2_)" fill-rule="evenodd" clip-rule="evenodd" fill="#000000" d="M623.611,189.74
		c0-12.026-9.776-21.806-21.805-21.806h-30.176v55.894h10.564V211.56h19.611c0.437,0,0.846-0.109,1.276-0.134l6.642,12.707
		l11.938-0.144l-8.324-15.801C619.483,204.325,623.61,197.531,623.611,189.74L623.611,189.74z M582.195,178.496h19.611
		c6.2,0,11.263,5.041,11.263,11.244c0,6.213-5.063,11.271-11.263,11.271h-19.611V178.496z"/>
	<polygon clip-path="url(#SVGID_2_)" fill-rule="evenodd" clip-rule="evenodd" fill="#000000" points="25.266,198.242 
		13.105,167.976 1.223,167.976 23.966,224.064 42.18,188.05 59.674,224.014 83.894,167.976 71.992,167.976 58.873,199.034 
		42.419,164.704 	"/>
	<path clip-path="url(#SVGID_2_)" fill-rule="evenodd" clip-rule="evenodd" fill="#000000" d="M322.332,48.884L305.096,1.33h-25.779
		l18.579,50.767c8.121-0.483,16.497-0.897,25.129-1.208C322.793,50.219,322.567,49.51,322.332,48.884"/>
	<path clip-path="url(#SVGID_2_)" fill-rule="evenodd" clip-rule="evenodd" fill="#000000" d="M383.263,50.519L361.177,4.196h-2.442
		l-21.729,46.282c7.31-0.151,14.747-0.238,22.365-0.238C367.515,50.24,375.481,50.338,383.263,50.519"/>
	<path clip-path="url(#SVGID_2_)" fill-rule="evenodd" clip-rule="evenodd" fill="#000000" d="M438.676,1.334h-23.683
		l-17.065,47.549c-0.237,0.637-0.478,1.364-0.723,2.069c7.955,0.292,15.703,0.67,23.199,1.12L438.676,1.334z"/>
	<path clip-path="url(#SVGID_2_)" fill-rule="evenodd" clip-rule="evenodd" fill="#000000" d="M303.954,70.492
		c-93.409,2.392-153.314,10.121-154.094,10.173c-2.077,0.151-4-0.506-4.314-1.446c-0.314-0.946,1.109-1.823,3.177-1.978
		c0.93-0.063,86.199-18.078,210.649-18.078c124.497,0,208.768,18.026,209.519,18.098c2.058,0.175,3.412,1.08,3.024,2.013
		c-0.339,0.836-1.919,1.415-3.714,1.415c-0.229,0-0.466-0.016-0.699-0.028c-0.619-0.065-59.629-7.792-152.864-10.189h-0.853
		l-18.124,50.337h-2.436L369.43,69.814h-1.165c-3.329-0.015-5.509-0.027-8.893-0.027c-3.094,0-5.219,0.012-8.25,0.023H350.2
		l-24.717,51h-2.446l-18.407-50.317H303.954z"/>
	<polygon clip-path="url(#SVGID_2_)" fill-rule="evenodd" clip-rule="evenodd" fill="#000000" points="695.369,167.873 
		684.802,167.873 659.882,167.873 659.882,178.421 684.802,178.421 684.802,223.828 695.369,223.828 695.369,178.421 
		721.223,178.421 721.223,167.873 	"/>
</g>
</svg>
